<svg xmlns="http://www.w3.org/2000/svg" xmlns:xlink="http://www.w3.org/1999/xlink" id="Layer_1" style="width: 400px; height: 400px; transform-origin: 50% 50%; transform: scaleX(1) scaleY(1) rotate(0deg);" version="1.1" viewBox="-6 -6 132 132" xml:space="preserve" preserveAspectRatio="xMidYMid meet"><rect id="svg-editor-bg-shape" data-editor="bg-shape" x="1.92" y="1.92" width="116.16" height="116.16" rx="27.72" ry="27.72" fill="#327BEC" stroke="none" style="pointer-events: none;"/><style type="text/css">
	.st0{fill:#4B92FF;}
	.st1{fill:#FFCD57;}
	.st2{fill:#C7E9FF;}
	.st3{fill:#9FCDFF;}
	.st4{fill:#FFFFFF;}
</style><g class=""><g class=""><path class="st0" d="M95,70.4c0,4.5,3.6,8.1,8.1,8.1v6.4c0,3.7-3,6.7-6.7,6.7H28.9c-3.7,0-6.7-3-6.7-6.7v-6.4    c4.5,0,8.1-3.6,8.1-8.1c0-4.5-3.6-8.1-8.1-8.1v-6.4c0-3.7,3-6.7,6.7-6.7h67.6c3.7,0,6.7,3,6.7,6.7v6.4C98.6,62.3,95,65.9,95,70.4z    " style="fill:#8CA9D6"/><path class="st1" d="M93.8,88.4h-11c-0.6,0-1.2-0.5-1.2-1.2v-3.3c0-0.6,0.5-1.2,1.2-1.2h11c0.6,0,1.2,0.5,1.2,1.2v3.3    C94.9,87.8,94.4,88.4,93.8,88.4z"/><path class="st2" d="M76.1,84.6h-9c-0.5,0-0.9,0.4-0.9,0.9v0c0,0.5,0.4,0.9,0.9,0.9h9c0.5,0,0.9-0.4,0.9-0.9v0    C77,85,76.6,84.6,76.1,84.6z"/></g><g class=""><path class="st3" d="M86.3,38.8c2.5,3.7,7.6,4.7,11.3,2.1l3.6,5.3c2.1,3,1.3,7.2-1.7,9.3L43.7,93.6c-3,2.1-7.2,1.3-9.3-1.7    l-3.6-5.3C34.5,84,35.5,79,33,75.3c-2.5-3.7-7.6-4.7-11.3-2.1L18,67.8c-2.1-3-1.3-7.2,1.7-9.3l55.8-38.1c3-2.1,7.2-1.3,9.3,1.7    l3.6,5.3C84.8,30.1,83.8,35.1,86.3,38.8z"/><path class="st2" d="M88.5,27.6l-3.6-5.3c-2.1-3-6.2-3.8-9.3-1.7L57.9,32.6l-1,0.7L55.9,34l0.8,1.1c0.3,0.5,1,0.6,1.5,0.3l0.2-0.1    l2,3l-0.2,0.1c-0.5,0.3-0.6,1-0.3,1.5l1.6,2.3c0.3,0.5,1,0.6,1.5,0.3l0.2-0.1l2,3l-0.2,0.1c-0.5,0.3-0.6,1-0.3,1.5l1.6,2.3    c0.3,0.5,1,0.6,1.5,0.3l0.2-0.1l2,3l-0.2,0.1c-0.5,0.3-0.6,1-0.3,1.5l1.6,2.3c0.3,0.5,1,0.6,1.5,0.3l0.2-0.1l2,3l-0.2,0.1    c-0.5,0.3-0.6,1-0.3,1.5l1.6,2.3c0.3,0.5,1,0.6,1.5,0.3l0.2-0.1l2,3l-0.2,0.1c-0.5,0.3-0.6,1-0.3,1.5l0.8,1.1l1.1-0.7l1-0.7    l17.7-12.1c3-2.1,3.8-6.2,1.7-9.3L97.7,41c-3.7,2.5-8.8,1.6-11.3-2.1C83.8,35.2,84.8,30.1,88.5,27.6z"/><path class="st0" d="M93.7,53.8L84.6,60c-0.5,0.4-1.3,0.2-1.6-0.3L81.2,57c-0.4-0.5-0.2-1.3,0.3-1.6l9.1-6.2    c0.5-0.4,1.3-0.2,1.6,0.3l1.8,2.7C94.4,52.7,94.2,53.4,93.7,53.8z" style="fill:#8CA9D6"/><g class=""><path class="st3" d="M73.3,28.6l-7.1,4.9c-0.4,0.3-0.4,0.9-0.1,1.4l0,0c0.3,0.5,0.9,0.7,1.3,0.4l7.1-4.9c0.4-0.3,0.4-0.9,0.1-1.4     l0,0C74.3,28.5,73.7,28.3,73.3,28.6z"/><path class="st3" d="M75.5,31.9l-7.1,4.9c-0.4,0.3-0.4,0.9-0.1,1.4c0.3,0.5,0.9,0.7,1.3,0.4l7.1-4.9c0.4-0.3,0.4-0.9,0.1-1.4     C76.5,31.8,75.9,31.6,75.5,31.9z"/></g><rect class="st1" height="11.8" transform="matrix(0.826 -0.5637 0.5637 0.826 -15.2028 37.2977)" width="5.8" x="49.9" y="37.4"/><path class="st2" d="M48.9,82.1l-7.4,5.1c-0.4,0.3-0.5,0.9-0.2,1.3l0,0c0.3,0.4,0.9,0.5,1.3,0.2l7.4-5.1c0.4-0.3,0.5-0.9,0.2-1.3    l0,0C49.9,82,49.3,81.9,48.9,82.1z"/><path class="st4" d="M59.8,55c-1.1-0.2-2.3,0.1-3.2,0.7l-4.6,3.6l-8.4-3.5L40.4,58l7.3,4.7l-6.2,4.8l-1.9-1.1l-2.5,1.7l3.3,2.2    l1,3.8l2.5-1.7l-0.4-2.1l6.6-4.1l1.8,8.5l3.2-2.2l-0.3-9.2l4.9-3c1-0.6,1.6-1.6,1.8-2.7C61.6,56.2,60.9,55.2,59.8,55z"/></g></g></svg>